<svg width="25" height="24" viewBox="0 0 25 24" fill="none" xmlns="http://www.w3.org/2000/svg">
<path d="M20.6592 3.27246L13.4951 8.57335L14.8273 5.44936L20.6592 3.27246Z" fill="#E17726" stroke="#E17726" stroke-width="0.136364" stroke-linecap="round" stroke-linejoin="round"/>
<path d="M4.13477 3.27246L11.235 8.62282L9.96663 5.44936L4.13477 3.27246Z" fill="#E27625" stroke="#E27625" stroke-width="0.136364" stroke-linecap="round" stroke-linejoin="round"/>
<path d="M18.08 15.5635L16.1738 18.4754L20.2554 19.5992L21.4246 15.6271L18.08 15.5635Z" fill="#E27625" stroke="#E27625" stroke-width="0.136364" stroke-linecap="round" stroke-linejoin="round"/>
<path d="M3.37598 15.6271L4.53809 19.5992L8.61261 18.4754L6.71352 15.5635L3.37598 15.6271Z" fill="#E27625" stroke="#E27625" stroke-width="0.136364" stroke-linecap="round" stroke-linejoin="round"/>
<path d="M8.39352 10.6439L7.25977 12.3544L11.2988 12.5381L11.1642 8.19141L8.39352 10.6439Z" fill="#E27625" stroke="#E27625" stroke-width="0.136364" stroke-linecap="round" stroke-linejoin="round"/>
<path d="M16.4004 10.6446L13.5872 8.14258L13.4951 12.5388L17.5342 12.355L16.4004 10.6446Z" fill="#E27625" stroke="#E27625" stroke-width="0.136364" stroke-linecap="round" stroke-linejoin="round"/>
<path d="M8.61328 18.4753L11.058 17.295L8.95343 15.6553L8.61328 18.4753Z" fill="#E27625" stroke="#E27625" stroke-width="0.136364" stroke-linecap="round" stroke-linejoin="round"/>
<path d="M13.7363 17.295L16.1739 18.4753L15.8409 15.6553L13.7363 17.295Z" fill="#E27625" stroke="#E27625" stroke-width="0.136364" stroke-linecap="round" stroke-linejoin="round"/>
<path d="M16.1739 18.4752L13.7363 17.2949L13.9347 18.8781L13.9134 19.5496L16.1739 18.4752Z" fill="#D5BFB2" stroke="#D5BFB2" stroke-width="0.136364" stroke-linecap="round" stroke-linejoin="round"/>
<path d="M8.61328 18.4752L10.8808 19.5496L10.8667 18.8781L11.058 17.2949L8.61328 18.4752Z" fill="#D5BFB2" stroke="#D5BFB2" stroke-width="0.136364" stroke-linecap="round" stroke-linejoin="round"/>
<path d="M10.9231 14.6094L8.89648 14.0157L10.3279 13.3584L10.9231 14.6094Z" fill="#233447" stroke="#233447" stroke-width="0.136364" stroke-linecap="round" stroke-linejoin="round"/>
<path d="M13.8711 14.6094L14.4663 13.3584L15.9048 14.0157L13.8711 14.6094Z" fill="#233447" stroke="#233447" stroke-width="0.136364" stroke-linecap="round" stroke-linejoin="round"/>
<path d="M8.61292 18.4754L8.96725 15.5635L6.71387 15.6271L8.61292 18.4754Z" fill="#CC6228" stroke="#CC6228" stroke-width="0.136364" stroke-linecap="round" stroke-linejoin="round"/>
<path d="M15.8262 15.5635L16.1734 18.4754L18.0796 15.6271L15.8262 15.5635Z" fill="#CC6228" stroke="#CC6228" stroke-width="0.136364" stroke-linecap="round" stroke-linejoin="round"/>
<path d="M17.5342 12.3545L13.4951 12.5383L13.8707 14.6092L14.4659 13.3581L15.9044 14.0155L17.5342 12.3545Z" fill="#CC6228" stroke="#CC6228" stroke-width="0.136364" stroke-linecap="round" stroke-linejoin="round"/>
<path d="M8.89665 14.0155L10.328 13.3581L10.9233 14.6092L11.2988 12.5383L7.25977 12.3545L8.89665 14.0155Z" fill="#CC6228" stroke="#CC6228" stroke-width="0.136364" stroke-linecap="round" stroke-linejoin="round"/>
<path d="M7.25977 12.3545L8.95335 15.6552L8.89663 14.0155L7.25977 12.3545Z" fill="#E27525" stroke="#E27525" stroke-width="0.136364" stroke-linecap="round" stroke-linejoin="round"/>
<path d="M15.9046 14.0155L15.8408 15.6552L17.5344 12.3545L15.9046 14.0155Z" fill="#E27525" stroke="#E27525" stroke-width="0.136364" stroke-linecap="round" stroke-linejoin="round"/>
<path d="M11.2985 12.5381L10.9229 14.609L11.3976 17.0545L11.5039 13.8315L11.2985 12.5381Z" fill="#E27525" stroke="#E27525" stroke-width="0.136364" stroke-linecap="round" stroke-linejoin="round"/>
<path d="M13.4953 12.5381L13.2969 13.8245L13.3961 17.0545L13.8709 14.609L13.4953 12.5381Z" fill="#E27525" stroke="#E27525" stroke-width="0.136364" stroke-linecap="round" stroke-linejoin="round"/>
<path d="M13.8712 14.6094L13.3965 17.0548L13.7366 17.2951L15.8412 15.6554L15.905 14.0156L13.8712 14.6094Z" fill="#F5841F" stroke="#F5841F" stroke-width="0.136364" stroke-linecap="round" stroke-linejoin="round"/>
<path d="M8.89648 14.0156L8.95321 15.6554L11.0577 17.2951L11.3979 17.0548L10.9231 14.6094L8.89648 14.0156Z" fill="#F5841F" stroke="#F5841F" stroke-width="0.136364" stroke-linecap="round" stroke-linejoin="round"/>
<path d="M13.9137 19.5499L13.9349 18.8785L13.7507 18.7229H11.0438L10.8667 18.8785L10.8808 19.5499L8.61328 18.4756L9.40692 19.1258L11.0155 20.2355H13.7719L15.3876 19.1258L16.1741 18.4756L13.9137 19.5499Z" fill="#C0AC9D" stroke="#C0AC9D" stroke-width="0.136364" stroke-linecap="round" stroke-linejoin="round"/>
<path d="M13.7361 17.295L13.3959 17.0547H11.3976L11.0576 17.295L10.8662 18.8782L11.0434 18.7227H13.7502L13.9345 18.8782L13.7361 17.295Z" fill="#161616" stroke="#161616" stroke-width="0.136364" stroke-linecap="round" stroke-linejoin="round"/>
<path d="M20.9641 8.91966L21.5664 5.99359L20.6594 3.27246L13.7363 8.39668L16.4007 10.6442L20.1634 11.7398L20.9925 10.7715L20.6311 10.5099L21.205 9.98695L20.7657 9.64768L21.3397 9.20946L20.9641 8.91966Z" fill="#763E1A" stroke="#763E1A" stroke-width="0.136364" stroke-linecap="round" stroke-linejoin="round"/>
<path d="M3.22754 5.99359L3.83694 8.91966L3.44721 9.20946L4.02827 9.64768L3.58893 9.98695L4.1629 10.5099L3.80151 10.7715L4.63058 11.7398L8.39332 10.6442L11.0576 8.39668L4.13456 3.27246L3.22754 5.99359Z" fill="#763E1A" stroke="#763E1A" stroke-width="0.136364" stroke-linecap="round" stroke-linejoin="round"/>
<path d="M20.1633 11.74L16.4006 10.6445L17.5344 12.355L15.8408 15.6556L18.08 15.6274H21.4246L20.1633 11.74Z" fill="#F5841F" stroke="#F5841F" stroke-width="0.136364" stroke-linecap="round" stroke-linejoin="round"/>
<path d="M8.3929 10.6445L4.63021 11.74L3.37598 15.6274H6.71352L8.9527 15.6556L7.25915 12.355L8.3929 10.6445Z" fill="#F5841F" stroke="#F5841F" stroke-width="0.136364" stroke-linecap="round" stroke-linejoin="round"/>
<path d="M13.4957 12.5383L13.7366 8.39649L14.8278 5.44922H9.9668L11.058 8.39649L11.299 12.5383L11.3911 13.8388L11.3982 17.0547H13.3965L13.4035 13.8388L13.4957 12.5383Z" fill="#F5841F" stroke="#F5841F" stroke-width="0.136364" stroke-linecap="round" stroke-linejoin="round"/>
</svg>
