<svg width="66" height="66" viewBox="0 0 66 66" fill="none" xmlns="http://www.w3.org/2000/svg">
<path d="M15.5774 22.0338C25.1561 12.6554 40.6863 12.6554 50.265 22.0338L51.4178 23.1625C51.8967 23.6314 51.8967 24.3917 51.4178 24.8606L47.4743 28.7216C47.2348 28.9561 46.8465 28.9561 46.6071 28.7216L45.0207 27.1684C38.3383 20.6258 27.5041 20.6258 20.8217 27.1684L19.1228 28.8318C18.8833 29.0662 18.4951 29.0662 18.2556 28.8318L14.3121 24.9707C13.8331 24.5018 13.8331 23.7415 14.3121 23.2726L15.5774 22.0338ZM58.4206 30.0189L61.9304 33.4552C62.4093 33.9241 62.4093 34.6844 61.9304 35.1533L46.1046 50.6483C45.6257 51.1172 44.8492 51.1172 44.3702 50.6483C44.3702 50.6483 44.3702 50.6483 44.3702 50.6483L33.1381 39.6511C33.0183 39.5338 32.8242 39.5338 32.7045 39.6511C32.7045 39.6511 32.7045 39.6511 32.7045 39.6511L21.4725 50.6483C20.9936 51.1172 20.2171 51.1172 19.7382 50.6483C19.7382 50.6483 19.7381 50.6483 19.7381 50.6483L3.91194 35.1531C3.433 34.6842 3.433 33.9239 3.91194 33.455L7.42171 30.0187C7.90064 29.5497 8.67715 29.5497 9.15609 30.0187L20.3884 41.0161C20.5082 41.1333 20.7023 41.1333 20.822 41.0161C20.822 41.0161 20.822 41.0161 20.822 41.016L32.0538 30.0187C32.5327 29.5497 33.3092 29.5497 33.7882 30.0186C33.7882 30.0186 33.7882 30.0186 33.7882 30.0186L45.0205 41.016C45.1402 41.1333 45.3344 41.1333 45.4541 41.016L56.6862 30.0189C57.1652 29.5499 57.9417 29.5499 58.4206 30.0189Z" fill="#3B99FC"/>
</svg>
