<svg width="100" height="66" viewBox="0 0 66 66" fill="none" xmlns="http://www.w3.org/2000/svg">
  <path d="M55.4375 9L35.7363 23.5774L39.3999 14.9865L55.4375 9Z" fill="#E17726" stroke="#E17726" stroke-width="0.375"
    stroke-linecap="round" stroke-linejoin="round" />
  <path d="M9.99414 9L29.5199 23.7135L26.0318 14.9865L9.99414 9Z" fill="#E27625" stroke="#E27625" stroke-width="0.375"
    stroke-linecap="round" stroke-linejoin="round" />
  <path d="M48.3435 42.8001L43.1016 50.808L54.3259 53.8984L57.5413 42.9751L48.3435 42.8001Z" fill="#E27625"
    stroke="#E27625" stroke-width="0.375" stroke-linecap="round" stroke-linejoin="round" />
  <path d="M7.90918 42.9751L11.105 53.8984L22.3099 50.808L17.0874 42.8001L7.90918 42.9751Z" fill="#E27625"
    stroke="#E27625" stroke-width="0.375" stroke-linecap="round" stroke-linejoin="round" />
  <path d="M21.7057 29.2724L18.5879 33.9761L29.6953 34.4814L29.3251 22.5279L21.7057 29.2724Z" fill="#E27625"
    stroke="#E27625" stroke-width="0.375" stroke-linecap="round" stroke-linejoin="round" />
  <path d="M43.7258 29.2725L35.9897 22.392L35.7363 34.4815L46.8437 33.9762L43.7258 29.2725Z" fill="#E27625"
    stroke="#E27625" stroke-width="0.375" stroke-linecap="round" stroke-linejoin="round" />
  <path d="M22.3105 50.808L29.0334 47.5622L23.2459 43.0529L22.3105 50.808Z" fill="#E27625" stroke="#E27625"
    stroke-width="0.375" stroke-linecap="round" stroke-linejoin="round" />
  <path d="M36.3994 47.5622L43.1028 50.808L42.1869 43.0529L36.3994 47.5622Z" fill="#E27625" stroke="#E27625"
    stroke-width="0.375" stroke-linecap="round" stroke-linejoin="round" />
  <path d="M43.1028 50.8083L36.3994 47.5625L36.945 51.9162L36.8865 53.7627L43.1028 50.8083Z" fill="#D5BFB2"
    stroke="#D5BFB2" stroke-width="0.375" stroke-linecap="round" stroke-linejoin="round" />
  <path d="M22.3105 50.8083L28.5463 53.7627L28.5073 51.9162L29.0334 47.5625L22.3105 50.8083Z" fill="#D5BFB2"
    stroke="#D5BFB2" stroke-width="0.375" stroke-linecap="round" stroke-linejoin="round" />
  <path d="M28.6621 40.1763L23.0889 38.5437L27.0252 36.736L28.6621 40.1763Z" fill="#233447" stroke="#233447"
    stroke-width="0.375" stroke-linecap="round" stroke-linejoin="round" />
  <path d="M36.7695 40.1763L38.4065 36.736L42.3623 38.5437L36.7695 40.1763Z" fill="#233447" stroke="#233447"
    stroke-width="0.375" stroke-linecap="round" stroke-linejoin="round" />
  <path d="M22.3103 50.808L23.2847 42.8001L17.0879 42.9751L22.3103 50.808Z" fill="#CC6228" stroke="#CC6228"
    stroke-width="0.375" stroke-linecap="round" stroke-linejoin="round" />
  <path d="M42.1475 42.8001L43.1024 50.808L48.3443 42.9751L42.1475 42.8001Z" fill="#CC6228" stroke="#CC6228"
    stroke-width="0.375" stroke-linecap="round" stroke-linejoin="round" />
  <path d="M46.8437 33.9759L35.7363 34.4812L36.7691 40.1763L38.406 36.7359L42.3618 38.5435L46.8437 33.9759Z"
    fill="#CC6228" stroke="#CC6228" stroke-width="0.375" stroke-linecap="round" stroke-linejoin="round" />
  <path d="M23.0893 38.5435L27.0256 36.7359L28.6626 40.1763L29.6953 34.4812L18.5879 33.9759L23.0893 38.5435Z"
    fill="#CC6228" stroke="#CC6228" stroke-width="0.375" stroke-linecap="round" stroke-linejoin="round" />
  <path d="M18.5879 33.9759L23.2453 43.0528L23.0893 38.5435L18.5879 33.9759Z" fill="#E27525" stroke="#E27525"
    stroke-width="0.375" stroke-linecap="round" stroke-linejoin="round" />
  <path d="M42.3619 38.5435L42.1865 43.0528L46.8439 33.9759L42.3619 38.5435Z" fill="#E27525" stroke="#E27525"
    stroke-width="0.375" stroke-linecap="round" stroke-linejoin="round" />
  <path d="M29.695 34.4812L28.6621 40.1763L29.9677 46.9012L30.2601 38.0382L29.695 34.4812Z" fill="#E27525"
    stroke="#E27525" stroke-width="0.375" stroke-linecap="round" stroke-linejoin="round" />
  <path d="M35.7361 34.4812L35.1904 38.0188L35.4633 46.9012L36.7689 40.1763L35.7361 34.4812Z" fill="#E27525"
    stroke="#E27525" stroke-width="0.375" stroke-linecap="round" stroke-linejoin="round" />
  <path d="M36.7685 40.1764L35.4629 46.9014L36.3983 47.5623L42.1859 43.053L42.3612 38.5437L36.7685 40.1764Z"
    fill="#F5841F" stroke="#F5841F" stroke-width="0.375" stroke-linecap="round" stroke-linejoin="round" />
  <path d="M23.0889 38.5437L23.2449 43.053L29.0323 47.5623L29.9677 46.9014L28.6621 40.1764L23.0889 38.5437Z"
    fill="#F5841F" stroke="#F5841F" stroke-width="0.375" stroke-linecap="round" stroke-linejoin="round" />
  <path
    d="M36.8866 53.7626L36.945 51.9161L36.4384 51.4884H28.9945L28.5073 51.9161L28.5463 53.7626L22.3105 50.8082L24.493 52.5963L28.9165 55.6479H36.4968L40.9398 52.5963L43.1028 50.8082L36.8866 53.7626Z"
    fill="#C0AC9D" stroke="#C0AC9D" stroke-width="0.375" stroke-linecap="round" stroke-linejoin="round" />
  <path
    d="M36.3989 47.5621L35.4635 46.9014H29.9683L29.033 47.5621L28.5068 51.916L28.994 51.4884H36.4379L36.9446 51.916L36.3989 47.5621Z"
    fill="#161616" stroke="#161616" stroke-width="0.375" stroke-linecap="round" stroke-linejoin="round" />
  <path
    d="M56.2758 24.5298L57.9322 16.4831L55.4379 9L36.3994 23.0916L43.7263 29.2724L54.0738 32.2851L56.3538 29.6223L55.36 28.903L56.9383 27.4649L55.7302 26.5318L57.3087 25.3267L56.2758 24.5298Z"
    fill="#763E1A" stroke="#763E1A" stroke-width="0.375" stroke-linecap="round" stroke-linejoin="round" />
  <path
    d="M7.5 16.4831L9.17586 24.5298L8.10409 25.3267L9.702 26.5318L8.49382 27.4649L10.0722 28.903L9.07842 29.6223L11.3584 32.2851L21.7059 29.2724L29.0328 23.0916L9.9943 9L7.5 16.4831Z"
    fill="#763E1A" stroke="#763E1A" stroke-width="0.375" stroke-linecap="round" stroke-linejoin="round" />
  <path d="M54.0734 32.2849L43.726 29.2723L46.8439 33.976L42.1865 43.0528L48.3443 42.9751H57.542L54.0734 32.2849Z"
    fill="#F5841F" stroke="#F5841F" stroke-width="0.375" stroke-linecap="round" stroke-linejoin="round" />
  <path d="M21.7057 29.2723L11.3583 32.2849L7.90918 42.9751H17.0874L23.2452 43.0528L18.5879 33.976L21.7057 29.2723Z"
    fill="#F5841F" stroke="#F5841F" stroke-width="0.375" stroke-linecap="round" stroke-linejoin="round" />
  <path
    d="M35.7357 34.4814L36.3982 23.0914L39.3991 14.9865H26.0312L29.0321 23.0914L29.6947 34.4814L29.9481 38.0577L29.9675 46.9014H35.4628L35.4823 38.0577L35.7357 34.4814Z"
    fill="#F5841F" stroke="#F5841F" stroke-width="0.375" stroke-linecap="round" stroke-linejoin="round" />
</svg>
